<svg width="178" height="39" viewBox="0 0 178 39" fill="none" xmlns="http://www.w3.org/2000/svg">
<path d="M164.05 17.63C164.46 16.27 165.89 12.37 170.12 12.37C171.08 12.37 173.84 12.63 173.91 15.98C173.91 16.38 173.87 16.75 173.72 17.6C171.36 17.6 164.04 17.64 164.04 17.64M174.38 28.06C174.68 26.81 174.93 25.96 175.34 24.75L175.05 24.57C173.62 25.6 172.03 26.78 168.98 26.78C167.65 26.78 163.46 26.67 163.46 21.85C163.46 21.15 163.53 20.49 163.57 20.27C165.23 20.2 166.44 20.2 168.1 20.2C171.3 20.2 174.8 20.24 176.72 20.24L176.98 20.06C177.09 19.51 177.42 18.22 177.42 16.71C177.42 11.82 174.33 9.83 169.98 9.83C163.61 9.83 159.67 15.39 159.67 21.83C159.67 26.06 161.92 29.82 168.21 29.82C171.04 29.82 172.96 29.09 174.21 28.35L174.39 28.09L174.38 28.06ZM150.42 29.09C150.75 26.73 152.23 20.4 152.56 19.01C153.7 14.22 155.98 13.71 156.98 13.71C157.68 13.71 158.27 14.04 158.53 14.23L158.9 14.12C159.42 12.76 159.78 11.84 160.34 10.51L160.23 10.18C159.86 9.96 159.35 9.78 158.54 9.78C155.93 9.78 154.31 12.5 153.75 13.42C154.04 12.2 154.27 11.25 154.56 10.18L154.37 9.92C152.94 10.22 151.87 10.36 150.4 10.55L150.14 10.81C149.77 13.94 147.67 23.44 146.13 29.22L146.31 29.44C147.71 29.4 148.7 29.37 150.14 29.37L150.43 29.11L150.42 29.09ZM130.8 22.69C130.8 20.04 132.2 12.49 137.28 12.49C138.94 12.49 141.11 13.26 141.11 16.83C141.11 18.08 140.19 27.06 134.63 27.06C131.9 27.06 130.8 25.04 130.8 22.68M126.9 22.42C126.9 29.23 132.24 29.78 134.56 29.78C143.25 29.78 145.01 20.87 145.01 17.01C145.01 12.11 141.7 9.79 137.13 9.79C130.14 9.79 126.9 16.45 126.9 22.42ZM121.82 29.12C122.34 25.73 126.05 8.18 127.89 0.22L127.71 0C126.2 0.29 125.17 0.48 123.66 0.7L123.4 0.96C122.11 10.13 118.17 26.25 117.62 29.23L117.77 29.45C119.17 29.38 120.16 29.38 121.52 29.34L121.81 29.12H121.82ZM103.75 14.76C105.07 13.43 106.62 12.92 108.02 12.92C109.82 12.92 112.25 13.91 112.25 17.71C112.25 20.25 110.41 26.65 102.38 26.65C101.87 26.65 101.31 26.61 101.05 26.54L103.74 14.76H103.75ZM98.67 37.95C99.26 35.04 99.78 32.21 100.44 29.37C101.14 29.41 101.84 29.41 102.58 29.41C115.5 29.41 116.27 18.99 116.27 17.37C116.27 13.61 114.17 9.86 109.53 9.86C107.17 9.86 105.33 11 104.38 11.63L104.75 10.12L104.57 9.86C103.1 10.12 102.11 10.3 100.63 10.48L100.37 10.74C99.23 18.58 96.06 31.2 94.37 37.94L94.56 38.16C94.71 38.16 96.14 38.12 96.51 38.12C97.32 38.12 97.87 38.12 98.46 38.16L98.68 37.94L98.67 37.95ZM94.4 29.08C93.33 26.25 92.15 23.12 89.58 15.94C95.95 8.14 96.57 7.44 99.78 3.61L99.6 3.31C99.34 3.31 98.31 3.35 97.43 3.35C96.88 3.35 96.33 3.35 95.77 3.31L95.44 3.53C93.01 6.81 91.17 9.09 88.41 12.62C86.64 7.78 86.57 7 85.43 3.42L85.21 3.24C83.92 3.31 83.04 3.35 81.75 3.35H81.16L80.94 3.64C81.82 5.96 82.45 7.62 85.47 15.79C77.45 25.69 76.16 27.02 74.54 29.04L74.69 29.37C75.32 29.33 76.13 29.3 76.86 29.3C77.49 29.3 78.37 29.34 78.74 29.34L79.07 29.19C80.65 26.91 81.68 25.69 86.69 19.29C88.49 24.77 88.79 25.73 89.85 29.19L90.07 29.37C91.14 29.33 91.87 29.33 92.94 29.33H94.23L94.41 29.07L94.4 29.08ZM68.13 24.37C64.78 24.56 61.43 24.63 58.04 24.63C58 22.49 57.96 20.36 57.96 18.19C57.96 18.19 61.16 18.19 66.57 18.23L66.79 18.01C66.86 16.61 66.94 15.25 67.05 13.85L66.83 13.59C63.89 13.7 60.94 13.74 57.96 13.74C57.92 12.97 57.92 11.79 57.92 10.61C57.92 9.58 57.96 8.59 57.96 7.89C61.09 7.89 64.22 7.93 67.38 8L67.6 7.78C67.64 6.34 67.75 5.02 67.86 3.51L67.68 3.29C65.25 3.29 55.53 3.36 51.52 3.36L51.3 3.58C51.52 6.16 51.56 8.73 51.56 11.35V18.97C51.56 22.39 51.52 25.78 51.38 29.17L51.56 29.43C56.97 29.39 62.38 29.36 67.76 29.36L68.06 29.14C68.13 27.74 68.21 26.16 68.32 24.65L68.14 24.39L68.13 24.37ZM48 24.37C44.65 24.56 41.3 24.63 37.91 24.63C37.87 22.49 37.84 20.36 37.84 18.19C37.84 18.19 41.04 18.19 46.45 18.23L46.67 18.01C46.74 16.61 46.82 15.25 46.93 13.85L46.71 13.59C43.76 13.7 40.82 13.74 37.84 13.74C37.8 12.97 37.8 11.79 37.8 10.61C37.8 9.58 37.84 8.59 37.84 7.89C40.97 7.89 44.1 7.93 47.26 8L47.48 7.78C47.52 6.34 47.63 5.02 47.74 3.51L47.56 3.29C45.13 3.29 35.41 3.36 31.4 3.36L31.18 3.58C31.4 6.16 31.44 8.73 31.44 11.35V18.97C31.44 22.39 31.4 25.78 31.26 29.17L31.44 29.43C36.85 29.39 42.26 29.36 47.64 29.36L47.93 29.14C48 27.74 48.08 26.16 48.19 24.65L48.01 24.39L48 24.37ZM27.86 24.37C24.51 24.56 21.16 24.63 17.77 24.63C17.73 22.49 17.7 20.36 17.7 18.19C17.7 18.19 20.9 18.19 26.31 18.23L26.53 18.01C26.61 16.61 26.68 15.25 26.79 13.85L26.57 13.59C23.63 13.7 20.68 13.74 17.7 13.74C17.66 12.97 17.66 11.79 17.66 10.61C17.66 9.58 17.7 8.59 17.7 7.89C20.83 7.89 23.96 7.93 27.12 8L27.34 7.78C27.38 6.34 27.49 5.02 27.6 3.51L27.42 3.29C24.99 3.29 15.27 3.36 11.26 3.36L11.04 3.58C11.26 6.16 11.3 8.73 11.3 11.35V18.97C11.3 22.39 11.26 25.78 11.12 29.17L11.3 29.43C16.71 29.39 22.12 29.36 27.5 29.36L27.8 29.14C27.87 27.74 27.95 26.16 28.06 24.65L27.88 24.39L27.86 24.37ZM7.07 29.12C6.89 25.66 6.81 22.16 6.81 18.67C6.81 13.59 6.88 8.51 6.99 3.47L6.84 3.25C6.07 3.29 3.93 3.36 2.72 3.36H0.18L0 3.58C0.3 7.85 0.33 12.16 0.33 16.43V19.01C0.33 22.43 0.26 25.82 0.15 29.24L0.33 29.46C0.33 29.46 3.16 29.35 3.86 29.35H6.88L7.06 29.13" fill="#1E2F30"/>
</svg>
