<svg width="108" height="33" viewBox="0 0 108 33" fill="none" xmlns="http://www.w3.org/2000/svg">
<path d="M0 0H3.00406V15.1357H0V0ZM14.0149 1.49919V15.1357H11.0108V3.0189H7.98638V15.1357H4.98227V0H12.5231C12.9318 0 13.2861 0.143754 13.5858 0.431272C13.8719 0.732481 14.0149 1.08845 14.0149 1.49919ZM25.0258 0H15.9932V3.0189H18.9972V15.1357H22.0217V3.0189H25.0258V0ZM36.0367 3.0189V0H27.004V15.1357H36.0367V12.1167H30.0081V9.07733H34.5449V6.05838H30.0081V3.0189H36.0367ZM45.5558 7.55757C45.9645 7.55757 46.3187 7.7082 46.6184 8.0094C46.9045 8.29692 47.0476 8.65289 47.0476 9.07733V15.1357H44.0435V9.07733H41.019V15.1357H38.0149V0H45.5558C45.9645 0 46.3187 0.143754 46.6184 0.431272C46.9045 0.732481 47.0476 1.08845 47.0476 1.49919V6.05838C47.0476 6.46912 46.9045 6.82509 46.6184 7.1263C46.3187 7.41381 45.9645 7.55757 45.5558 7.55757ZM44.0435 6.05838V3.0189H41.019V6.05838H44.0435ZM58.0584 3.0189V0H49.0258V15.1357H58.0584V12.1167H52.0298V9.07733H56.5666V6.05838H52.0298V3.0189H58.0584ZM66.0652 4.53866V3.0189H63.0407V6.05838H67.5775C67.9862 6.05838 68.3405 6.20213 68.6402 6.48965C68.9263 6.79086 69.0693 7.14683 69.0693 7.55757V13.6159C69.0693 14.0404 68.9263 14.3963 68.6402 14.6838C68.3405 14.9851 67.9862 15.1357 67.5775 15.1357H61.5489C61.1265 15.1357 60.7724 14.9851 60.4863 14.6838C60.1865 14.3963 60.0366 14.0404 60.0366 13.6159V10.597H63.0407V12.1167H66.0652V9.07733H61.5489C61.1265 9.07733 60.7724 8.93357 60.4863 8.64605C60.1865 8.34484 60.0366 7.982 60.0366 7.55757V1.49919C60.0366 1.08845 60.1865 0.732481 60.4863 0.431272C60.7724 0.143754 61.1265 0 61.5489 0H67.5775C67.9862 0 68.3405 0.143754 68.6402 0.431272C68.9263 0.732481 69.0693 1.08845 69.0693 1.49919V4.53866H66.0652ZM80.0802 0H71.0475V3.0189H74.0516V15.1357H77.0761V3.0189H80.0802V0ZM82.0584 0H85.0625V15.1357H82.0584V0ZM96.0734 1.49919V15.1357H93.0693V3.0189H90.0447V15.1357H87.0407V0H94.5816C94.9903 0 95.3445 0.143754 95.6442 0.431272C95.9303 0.732481 96.0734 1.08845 96.0734 1.49919ZM104.08 4.53866V3.0189H101.056V12.1167H104.08V9.07733H102.568V6.05838H107.085V13.6159C107.085 14.0404 106.941 14.3963 106.655 14.6838C106.356 14.9851 106.001 15.1357 105.593 15.1357H99.5638C99.1415 15.1357 98.7873 14.9851 98.5012 14.6838C98.2014 14.3963 98.0515 14.0404 98.0515 13.6159V1.49919C98.0515 1.08845 98.2014 0.732481 98.5012 0.431272C98.7873 0.143754 99.1415 0 99.5638 0H105.593C106.001 0 106.356 0.143754 106.655 0.431272C106.941 0.732481 107.085 1.08845 107.085 1.49919V4.53866H104.08ZM9.03269 20.5437V17.5248H0V32.6605H10.3766L9.20707 29.6416H3.00406V26.6021H7.54087V23.5832H3.00406V20.5437H9.03269ZM20.0435 19.024V32.6605H17.0395V20.5437H14.0149V29.5678V32.6605H12.0753L11.0108 29.5678V17.5248H18.5517C18.9604 17.5248 19.3147 17.6685 19.6144 17.9561C19.9005 18.2573 20.0435 18.6132 20.0435 19.024ZM28.0503 22.0635V20.5437H25.0258V29.6416H28.0503V26.6021H26.5381V23.5832H31.0544V31.1408C31.0544 31.5652 30.9113 31.9212 30.6252 32.2087C30.3255 32.5099 29.9713 32.6605 29.5626 32.6605H23.534C23.1116 32.6605 22.7574 32.5099 22.4713 32.2087C22.1716 31.9212 22.0217 31.5652 22.0217 31.1408V19.024C22.0217 18.6132 22.1716 18.2573 22.4713 17.9561C22.7574 17.6685 23.1116 17.5248 23.534 17.5248H29.5626C29.9713 17.5248 30.3255 17.6685 30.6252 17.9561C30.9113 18.2573 31.0544 18.6132 31.0544 19.024V22.0635H28.0503ZM33.0326 17.5248H36.0367V32.6605H33.0326V17.5248ZM47.0476 19.024V32.6605H44.0435V20.5437H41.019V32.6605H38.0149V17.5248H45.5558C45.9645 17.5248 46.3187 17.6685 46.6184 17.9561C46.9045 18.2573 47.0476 18.6132 47.0476 19.024ZM58.0584 20.5437V17.5248H49.0258V32.6605H58.0584V29.6416H52.0298V26.6021H56.5666V23.5832H52.0298V20.5437H58.0584ZM69.0693 20.5437V17.5248H60.0366V32.6605H69.0693V29.6416H63.0407V26.6021H67.5775V23.5832H63.0407V20.5437H69.0693ZM78.5884 25.0824C78.9971 25.0824 79.3513 25.233 79.651 25.5342C79.9372 25.8217 80.0802 26.1777 80.0802 26.6021V32.6605H77.0761V26.6021H74.0516V32.6605H71.0475V17.5248H78.5884C78.9971 17.5248 79.3513 17.6685 79.651 17.9561C79.9372 18.2573 80.0802 18.6132 80.0802 19.024V23.5832C80.0802 23.9939 79.9372 24.3499 79.651 24.6511C79.3513 24.9386 78.9971 25.0824 78.5884 25.0824ZM77.0761 23.5832V20.5437H74.0516V23.5832H77.0761ZM82.0584 17.5248H85.0625V32.6605H82.0584V17.5248ZM96.0734 19.024V32.6605H93.0693V20.5437H90.0447V32.6605H87.0407V17.5248H94.5816C94.9903 17.5248 95.3445 17.6685 95.6442 17.9561C95.9303 18.2573 96.0734 18.6132 96.0734 19.024ZM104.08 22.0635V20.5437H101.056V29.6416H104.08V26.6021H102.568V23.5832H107.085V31.1408C107.085 31.5652 106.941 31.9212 106.655 32.2087C106.356 32.5099 106.001 32.6605 105.593 32.6605H99.5638C99.1415 32.6605 98.7873 32.5099 98.5012 32.2087C98.2014 31.9212 98.0515 31.5652 98.0515 31.1408V19.024C98.0515 18.6132 98.2014 18.2573 98.5012 17.9561C98.7873 17.6685 99.1415 17.5248 99.5638 17.5248H105.593C106.001 17.5248 106.356 17.6685 106.655 17.9561C106.941 18.2573 107.085 18.6132 107.085 19.024V22.0635H104.08Z" fill="#1E2F30"/>
</svg>
