<svg width="150" height="44" viewBox="0 0 150 44" fill="none" xmlns="http://www.w3.org/2000/svg">
<path d="M17.5429 15.6735C12.6758 16.2963 9.16462 20.3627 9.16175 25.0993C9.15888 29.8402 12.6729 33.9195 17.5329 34.5337L17.5357 43.7098C7.62212 43.1186 -0.0473514 34.8938 0.00717432 24.9902L0 0.000256653C4.04207 -0.029876 7.58194 2.59597 8.78437 6.47303L17.5357 6.48881L17.5429 15.6735Z" fill="#1E2F30"/>
<path d="M30.6189 39.4151C27.5324 41.9334 23.8577 43.4586 19.8013 43.7011L19.8084 34.5279C24.6354 33.8908 28.1365 29.8215 28.1351 25.095C28.1322 20.367 24.6182 16.2991 19.8027 15.6835V6.50171C29.3232 7.07136 36.8922 14.7867 37.271 24.3474L37.2767 43.7241C34.4428 43.7571 31.8916 42.1371 30.6189 39.4137V39.4151Z" fill="#1E2F30"/>
<path d="M85.8854 28.7425L86.9085 22.7518C87.0606 21.8651 86.4106 21.1763 85.5124 21.1749C84.5567 21.1734 83.6972 21.8077 83.515 22.7862L82.4101 28.7439L78.6909 28.7539L81.1417 14.8298L84.838 14.8226L84.1004 19.5032C85.5482 18.163 87.5843 17.6278 89.3349 18.5419C90.4556 19.1273 90.9793 20.5292 90.7698 21.7876L89.6075 28.7496L85.884 28.7439L85.8854 28.7425Z" fill="#1E2F30"/>
<path d="M130.728 18.1888L128.834 28.7582H125.172C125.104 28.3191 125.379 27.9618 125.228 27.4969C123.851 28.8127 121.777 29.3321 120.056 28.398C118.893 27.7681 118.439 26.3476 118.654 25.0547L119.796 18.1931H123.496L122.485 24.2498C122.39 24.818 122.729 25.435 123.241 25.6416C123.867 25.8927 124.524 25.7908 125.091 25.4106C125.515 25.1251 125.858 24.5554 125.972 23.914L126.986 18.196L130.728 18.1874V18.1888Z" fill="#1E2F30"/>
<path d="M71.5446 25.1496C71.7886 25.7766 72.4242 25.7078 72.925 25.6791C73.354 25.6532 73.6639 25.075 73.9825 24.7493C75.2595 24.5957 76.6098 24.6861 77.9126 24.7206C76.7461 28.0638 73.2048 29.6853 69.972 28.5388C68.6017 28.0538 67.712 26.8212 67.5571 25.372C67.3476 23.4148 67.956 21.4691 69.2732 20.0242C70.6837 18.4774 72.6782 17.9005 74.7315 18.1043C76.9326 18.3224 78.4823 20.0988 78.3316 22.2856L74.5048 22.2497C74.2422 21.9111 74.1418 21.3615 73.6998 21.2912C73.2579 21.2209 72.7499 21.1922 72.3482 21.5767C71.4729 22.4118 71.0711 23.9357 71.5432 25.151L71.5446 25.1496Z" fill="#1E2F30"/>
<path d="M110.88 25.141C111.125 25.7666 111.764 25.7236 112.163 25.702C112.695 25.6733 113.006 25.0922 113.315 24.755C114.608 24.5656 115.948 24.7048 117.256 24.7048C116.196 27.7597 113.262 29.318 110.211 28.7985C108.294 28.4728 106.945 27.0422 106.865 25.0721C106.789 23.2125 107.328 21.3988 108.6 20.0285C110.114 18.397 112.307 17.7815 114.493 18.1804C116.479 18.542 117.849 20.2911 117.637 22.2727L113.814 22.2095C113.57 21.8594 113.432 21.3529 113.026 21.2898C112.586 21.2209 112.074 21.2008 111.67 21.5897C110.815 22.4176 110.413 23.9529 110.88 25.141Z" fill="#1E2F30"/>
<path d="M50.8695 28.7266L47.1431 28.7567L48.908 18.4513L45.4585 18.3983L46.0181 15.4955L56.6937 15.5055L56.1871 18.4169L52.6803 18.46L50.8695 28.7266Z" fill="#1E2F30"/>
<path d="M137.731 25.6402L137.177 28.7424C136.19 28.8012 135.267 28.807 134.333 28.6621C132.8 28.4224 131.858 27.1569 132.103 25.6258L132.79 21.347C132.298 21.2695 131.928 21.3757 131.541 21.2365L132.073 18.2304C132.492 18.14 132.859 18.2118 133.341 18.1788L133.828 15.6562L137.525 15.6606L137.142 18.1745L138.97 18.2103L138.439 21.2896L136.563 21.324L135.917 24.9428C135.749 25.8827 137.119 25.4623 137.729 25.6402H137.731Z" fill="#1E2F30"/>
<path d="M102.995 15.5043L98.6843 15.5244L91.5601 28.7382L95.4644 28.7454L96.5563 26.6246H101.207L101.586 28.7641L105.474 28.7296L102.996 15.5043H102.995ZM98.007 23.7262L100.112 19.5837L100.765 23.7491C99.7877 23.7965 98.9368 23.8266 98.007 23.7247V23.7262Z" fill="#1E2F30"/>
<path d="M66.562 24.201C67.3339 22.0128 66.8202 19.2607 64.467 18.4299C62.2344 17.6421 59.6889 18.1056 57.9627 19.7614C56.3987 21.2623 55.7099 23.4548 56.0256 25.5871C56.2251 26.9316 57.1018 28.0622 58.386 28.5286C61.4696 29.6478 64.9779 28.1785 66.2363 25.0978L62.2889 25.0806C61.8182 25.7593 61.0362 26.1381 60.1982 25.7593C59.6602 25.5153 59.4148 24.6702 59.6846 24.234L66.5605 24.201H66.562ZM62.131 21.0342C62.7897 21.1619 63.256 21.621 63.1441 22.492L59.9414 22.5064C60.214 21.4331 61.1266 20.9108 62.131 21.0342Z" fill="#1E2F30"/>
<path d="M149.673 24.2054C150.42 22.0545 149.959 19.2493 147.544 18.4156C145.316 17.6451 142.783 18.1157 141.06 19.773C139.51 21.2638 138.821 23.4492 139.126 25.5556C139.316 26.8829 140.141 27.9992 141.39 28.4842C144.485 29.6852 148.107 28.1986 149.328 25.1022L145.385 25.095C144.895 25.8354 143.904 26.207 143.136 25.6445C142.674 25.3059 142.618 24.6616 142.753 24.2211L149.673 24.2054ZM145.228 21.0357C145.947 21.1318 146.402 21.7503 146.204 22.5079H143.049C143.308 21.4805 144.199 20.8979 145.228 21.0357Z" fill="#1E2F30"/>
</svg>
