<svg width="223" height="27" viewBox="0 0 223 27" fill="none" xmlns="http://www.w3.org/2000/svg">
<path d="M118.519 3.44899H111.675L111.68 0.0045166H118.514L118.519 3.44899Z" fill="#1E2F30"/>
<path d="M193.426 3.44899H186.583L186.587 0.0045166H193.422L193.426 3.44899Z" fill="#1E2F30"/>
<path d="M176.844 17.9939C176.876 18.2026 176.857 18.4432 176.798 18.6519C176.739 18.2571 176.649 17.9304 176.68 17.5854C176.739 17.6944 176.826 17.8668 176.844 17.9939Z" fill="#1E2F30"/>
<path d="M171.697 13.1744L171.561 13.1925C171.52 13.0427 171.565 12.893 171.67 12.7568C171.729 12.9338 171.683 13.0518 171.697 13.1744Z" fill="#1E2F30"/>
<path d="M176.681 17.5854C176.726 17.9303 176.78 18.0665 176.844 17.9939C177.202 12.0035 177.838 6.05847 178.691 0.00907656H185.435L182.335 26.571H173.726L171.698 13.1743C171.634 13.129 171.593 13.1199 171.561 13.1925L169.692 26.5665H161.133L158.02 0.00453742H164.75L166.156 17.6036L166.919 9.60732L168.108 0H175.242L176.671 17.5809L176.681 17.5854Z" fill="#1E2F30"/>
<path d="M73.6095 11.055V26.5711H67.1562L67.1471 11.3909C67.1199 10.5604 67.1244 9.82973 67.0201 9.03554C66.9474 8.48642 66.4755 8.17783 65.9173 8.31397C65.3182 8.46373 65.0459 9.02647 65.0323 9.67997L65.0187 26.5711H58.5654V4.82865L65.114 4.81958L65.0868 6.78007C66.1079 5.1191 67.7643 4.29769 69.6704 4.43383C71.2814 4.54729 72.6202 5.464 73.4507 6.89806C74.9346 4.57905 77.4034 3.80302 79.9403 4.9058C82.1594 6.15834 82.0596 7.82385 82.1957 10.1156V26.5665L75.7651 26.5756L75.7561 12.3393C75.7197 11.2774 75.7561 10.2972 75.629 9.26245C75.5609 8.7088 75.2795 8.3049 74.7576 8.28674C73.4053 8.23229 73.732 9.98402 73.5959 11.0596L73.6095 11.055Z" fill="#1E2F30"/>
<path d="M151.298 22.9041C150.667 26.1262 147.45 26.9975 144.577 26.9839C142.952 26.9748 141.36 26.7479 139.935 26.0127C137.03 24.6467 137.194 21.7287 137.198 18.974H143.066L143.089 21.0979C143.093 21.5336 143.143 21.9601 143.22 22.3686C143.329 22.9404 143.778 23.1628 144.323 23.131C144.868 23.0992 145.262 22.8224 145.344 22.2551C145.453 21.5018 145.439 20.7258 145.312 19.9679C145.244 19.564 145.045 19.3008 144.709 19.0875C143.579 18.3614 142.435 17.7215 141.255 17.0634C140.343 16.5552 139.513 16.0242 138.718 15.3616C137.924 14.6991 137.416 13.8368 137.198 12.7749C136.885 11.2273 136.939 9.63445 137.28 8.08239C137.924 5.15981 141.341 4.42008 143.919 4.42916C146.497 4.43824 149.683 5.12804 150.767 7.79649C150.971 8.30476 151.008 8.8675 151.008 9.41662L151.026 11.7901H145.14C145.14 10.8734 145.172 10.002 145.076 9.09894C145.026 8.61336 144.75 8.26846 144.232 8.30476C143.679 8.214 143.17 8.57252 143.08 9.16248C142.98 9.85228 142.966 10.6102 143.202 11.2909C143.37 11.7719 143.81 12.1123 144.219 12.3937C145.943 13.5963 147.763 14.0773 149.696 15.5658C150.613 16.2738 151.198 17.1996 151.389 18.3659C151.639 19.8726 151.584 21.411 151.294 22.9086L151.298 22.9041Z" fill="#1E2F30"/>
<path d="M129.388 22.3642C129.511 21.8831 129.556 21.4111 129.556 20.9346L129.57 17.6717H135.474C135.506 18.7835 135.442 19.8863 135.365 21.0209C135.297 22.0147 135.02 22.9178 134.498 23.7665C133.618 25.3276 132.17 26.3941 130.387 26.7571C128.603 27.1202 126.824 27.0748 125.1 26.63C123.03 26.0945 121.528 24.5561 121.047 22.5003C120.806 21.4656 120.657 20.4672 120.657 19.3735V11.3046C120.657 10.397 120.788 9.55742 120.983 8.69971C121.514 6.39885 124.06 4.91033 126.243 4.56542C128.73 4.17514 131.508 4.5382 133.45 6.24455C135.401 7.83291 135.447 10.642 135.488 13.0064H129.22L129.202 9.82517C129.202 9.39405 129.139 8.99922 128.939 8.60894C128.617 8.19143 127.827 8.12789 127.528 8.62709C127.314 8.98561 127.287 9.45304 127.287 9.87963V21.1479C127.282 21.9285 127.532 23.181 128.512 23.122C128.925 23.0993 129.266 22.8361 129.384 22.3596L129.388 22.3642Z" fill="#1E2F30"/>
<path d="M11.0187 26.5665L4.09344 26.5756V5.3369L0 5.30967L0.00907829 0.00453742L15.0985 0L15.1031 5.32782L11.0142 5.33236L11.0187 26.5665Z" fill="#1E2F30"/>
<path d="M39.0369 26.562L32.1934 26.5756V0L39.0369 0.00453742V26.562Z" fill="#1E2F30"/>
<path d="M110.437 23.0403L110.446 26.571L106.511 26.5619C105.885 26.5619 105.318 26.5211 104.691 26.4212C103.453 26.2215 102.268 25.3638 101.959 24.1068C101.728 23.1674 101.746 22.2416 101.742 21.2704L101.714 8.77225L100.294 8.75864V5.32324L101.71 5.30055L101.728 1.8833H108.381L108.386 5.2824L110.178 5.3187V8.7541L108.381 8.76318V20.9164C108.386 21.4882 108.426 21.9829 108.499 22.5184C108.59 23.1628 109.724 22.9904 110.432 23.0357L110.437 23.0403Z" fill="#1E2F30"/>
<path d="M202.389 26.5619L195.731 26.571V4.82402L202.362 4.81948L202.171 7.48793C203.115 5.78612 204.272 4.53358 206.31 4.4292L206.301 12.1214C204.69 12.0987 202.711 12.4255 202.521 14.2634C202.448 14.9714 202.393 15.634 202.393 16.3691V26.5619H202.389Z" fill="#1E2F30"/>
<path d="M118.519 26.562L111.675 26.5756V4.8241H118.519V26.562Z" fill="#1E2F30"/>
<path d="M193.426 26.562L186.583 26.5756V4.8241H193.426V26.562Z" fill="#1E2F30"/>
<path d="M99.1277 14.0003C99.1277 12.3167 99.0641 10.7464 98.8872 9.09908C98.6376 6.74831 96.8223 5.19171 94.6213 4.71974C92.9648 4.36576 91.2721 4.32492 89.593 4.58813C88.1226 4.81958 86.8247 5.464 85.7627 6.47602C85.1274 7.07959 84.719 7.79662 84.5057 8.6498C84.306 9.46667 84.1925 10.279 84.1925 11.1322V13.2561H90.4098L90.4235 10.1519C90.4235 9.63459 90.4461 9.13085 90.605 8.6498C90.8455 8.28675 91.2857 8.23683 91.6941 8.33213C92.039 8.41382 92.2886 8.77233 92.3613 9.19438C92.5337 10.2518 92.5292 11.3183 92.4066 12.3756C92.3613 12.775 92.1434 13.011 91.8031 13.1971C89.7518 14.318 87.5826 14.8126 85.6584 16.0243C84.4512 16.7822 84.188 18.0529 84.188 19.4734V22.2462C84.188 23.3807 84.4921 25.1052 85.4133 25.8495C86.4435 26.6754 87.7051 27.0158 89.0166 26.9977C90.5959 26.975 91.8938 26.1626 92.6381 24.7694L92.688 26.5801H99.1322L99.1186 14.0094L99.1277 14.0003ZM92.4066 22.4096C92.3522 22.8543 92.0708 23.1039 91.5943 23.1311C91.0361 23.1629 90.6277 22.877 90.546 22.3369C90.3781 21.2115 90.2374 18.5657 90.9816 17.6535C91.4037 17.1407 91.862 16.7005 92.4838 16.3102L92.4974 21.1752C92.4974 21.5972 92.4566 22.0057 92.4066 22.4096Z" fill="#1E2F30"/>
<path d="M30.0604 17.5037H23.7614L23.7569 20.9346C23.7569 21.4111 23.7024 21.8785 23.5935 22.3233C23.4755 22.8542 23.058 23.131 22.5316 23.131C22.0687 23.131 21.6875 22.9041 21.6149 22.4186C21.5422 22.0419 21.4969 21.6516 21.4969 21.2477V16.1105H30.0649V12.7613C30.0604 11.6177 29.9606 10.5331 29.6974 9.43029C29.3161 7.5651 28.1271 6.12196 26.4253 5.27786C25.141 4.63797 23.7433 4.43376 22.291 4.42014C19.2777 4.39291 16.16 5.56376 15.2886 8.70872C15.03 9.63451 14.8711 10.5512 14.8711 11.5405V19.6094C14.8666 21.815 15.3522 23.9479 17.113 25.3593C19.1779 27.0157 22.4499 27.229 24.9459 26.7661C27.7459 26.2442 29.8199 23.8118 30.0014 21.0163C30.0786 19.8454 30.0876 18.6972 30.0649 17.4901L30.0604 17.5037ZM21.574 9.04455C21.6194 8.55896 21.9098 8.3139 22.3818 8.28213C22.8855 8.25036 23.2395 8.54534 23.3031 9.08085C23.4347 10.2335 23.4074 11.3908 23.412 12.5707H21.5014C21.4878 11.3772 21.4651 10.2154 21.574 9.04455Z" fill="#1E2F30"/>
<path d="M56.4461 17.5037H50.1472L50.1426 20.9346C50.1426 21.4111 50.0882 21.8785 49.9792 22.3233C49.8613 22.8542 49.4437 23.131 48.9173 23.131C48.4544 23.131 48.0732 22.9041 48.0006 22.4186C47.928 22.0419 47.8826 21.6516 47.8826 21.2477V16.1105H56.4507V12.7613C56.4461 11.6177 56.3463 10.5331 56.0831 9.43029C55.7019 7.5651 54.5129 6.12196 52.8111 5.27786C51.5268 4.63797 50.129 4.43376 48.6768 4.42014C45.6634 4.39291 42.5457 5.56376 41.6744 8.70872C41.4157 9.63451 41.2569 10.5512 41.2569 11.5405V19.6094C41.2523 21.8104 41.7379 23.9479 43.4987 25.3593C45.5636 27.0157 48.8356 27.229 51.3316 26.7661C54.1317 26.2442 56.2056 23.8118 56.3872 21.0163C56.4643 19.8454 56.4734 18.6972 56.4507 17.4901L56.4461 17.5037ZM47.9598 9.04455C48.0051 8.55896 48.2956 8.3139 48.7676 8.28213C49.2713 8.25036 49.6253 8.54534 49.6888 9.08085C49.8204 10.2335 49.7932 11.3953 49.7977 12.5707H47.8871C47.8735 11.3772 47.8508 10.2154 47.9598 9.04455Z" fill="#1E2F30"/>
<path d="M222.761 17.5037H216.462L216.458 20.9346C216.458 21.4111 216.403 21.8785 216.299 22.3233C216.181 22.8588 215.763 23.131 215.237 23.131C214.774 23.131 214.393 22.9041 214.32 22.4186C214.248 22.0419 214.202 21.6516 214.202 21.2477V16.1105H222.77V12.7613C222.766 11.6177 222.666 10.5331 222.403 9.43029C222.026 7.5651 220.832 6.12196 219.131 5.27786C217.846 4.63797 216.449 4.43376 214.996 4.42014C211.983 4.39291 208.865 5.56376 207.994 8.70872C207.735 9.63905 207.576 10.5512 207.576 11.5405L207.567 19.5323C207.567 21.7469 208.012 23.8844 209.768 25.3275C211.824 27.0203 215.137 27.2336 217.647 26.7707C219.367 26.453 220.746 25.4727 221.681 24.0387C222.276 23.1265 222.611 22.1962 222.693 21.0934C222.779 19.8953 222.788 18.7245 222.761 17.4946V17.5037ZM214.275 9.04001C214.316 8.61342 214.565 8.30028 215.01 8.30028C215.269 8.26398 215.536 8.30028 215.727 8.47273C216.263 8.97647 216.063 11.6903 216.108 12.5707H214.198C214.189 11.3772 214.157 10.2199 214.275 9.04001Z" fill="#1E2F30"/>
</svg>
