<svg width="87" height="39" viewBox="0 0 87 39" fill="none" xmlns="http://www.w3.org/2000/svg">
<rect width="84.7826" height="18.6522" fill="#1E2F30"/>
<rect x="11.8696" y="20.3478" width="74.6087" height="18.6522" fill="#1E2F30"/>
<path d="M6.77775 5.80428H8.91387L9.68387 9.87285L10.8066 5.80428H12.9377L14.0654 9.87285L14.8354 5.80428H16.9616L15.357 13.087H13.1513L11.8746 8.50176L10.6029 13.087H8.39723L6.77775 5.80428ZM17.3193 10.464C17.3193 9.65924 17.5908 8.99688 18.134 8.47692C18.6771 7.95365 19.4107 7.69202 20.3347 7.69202C21.3912 7.69202 22.1893 7.99836 22.7291 8.61105C23.163 9.10451 23.3799 9.71223 23.3799 10.4342C23.3799 11.2456 23.11 11.9113 22.5702 12.4312C22.0336 12.9479 21.2901 13.2062 20.3397 13.2062C19.4918 13.2062 18.8063 12.9909 18.283 12.5604C17.6405 12.0272 17.3193 11.3284 17.3193 10.464ZM19.3461 10.459C19.3461 10.9293 19.4405 11.2771 19.6293 11.5023C19.8214 11.7275 20.0615 11.8401 20.3496 11.8401C20.641 11.8401 20.8795 11.7291 21.0649 11.5072C21.2537 11.2853 21.3481 10.9293 21.3481 10.4392C21.3481 9.98214 21.2537 9.64268 21.0649 9.42079C20.8762 9.19559 20.6427 9.08298 20.3645 9.08298C20.0697 9.08298 19.8263 9.19724 19.6342 9.42576C19.4421 9.65096 19.3461 9.99539 19.3461 10.459ZM24.3536 7.81124H26.2363V8.67066C26.5179 8.31961 26.8027 8.06957 27.0908 7.92053C27.3789 7.76819 27.73 7.69202 28.144 7.69202C28.7037 7.69202 29.1408 7.85927 29.4554 8.19376C29.7734 8.52494 29.9323 9.03827 29.9323 9.73376V13.087H27.9005V10.1858C27.9005 9.85464 27.8393 9.62115 27.7167 9.48537C27.5942 9.34627 27.422 9.27673 27.2001 9.27673C26.955 9.27673 26.7563 9.36946 26.604 9.55492C26.4516 9.74038 26.3754 10.0732 26.3754 10.5534V13.087H24.3536V7.81124ZM36.6934 5.80428V13.087H34.8007V12.307C34.5358 12.6382 34.294 12.8618 34.0754 12.9777C33.784 13.13 33.4594 13.2062 33.1018 13.2062C32.3831 13.2062 31.8333 12.933 31.4525 12.3865C31.0749 11.8401 30.8861 11.1761 30.8861 10.3945C30.8861 9.52014 31.0948 8.85116 31.5121 8.3875C31.9327 7.92385 32.4659 7.69202 33.1117 7.69202C33.4263 7.69202 33.7111 7.74501 33.9661 7.85099C34.2245 7.95696 34.453 8.11593 34.6517 8.32789V5.80428H36.6934ZM34.6666 10.4342C34.6666 10.0202 34.5788 9.71223 34.4033 9.51021C34.2278 9.30488 34.0059 9.20221 33.7376 9.20221C33.5025 9.20221 33.3054 9.29991 33.1465 9.49531C32.9875 9.6907 32.908 10.0186 32.908 10.4789C32.908 10.9095 32.9892 11.2257 33.1514 11.4278C33.317 11.6265 33.5207 11.7258 33.7625 11.7258C34.0208 11.7258 34.2361 11.6248 34.4083 11.4228C34.5805 11.2208 34.6666 10.8912 34.6666 10.4342ZM43.7824 10.9509H39.7287C39.7651 11.2754 39.8529 11.5172 39.992 11.6761C40.1874 11.9047 40.4424 12.0189 40.757 12.0189C40.9557 12.0189 41.1445 11.9692 41.3233 11.8699C41.4326 11.807 41.5502 11.696 41.6761 11.537L43.6681 11.7208C43.3634 12.2507 42.9958 12.6316 42.5653 12.8634C42.1347 13.0919 41.5171 13.2062 40.7123 13.2062C40.0135 13.2062 39.4638 13.1085 39.063 12.9131C38.6623 12.7144 38.3295 12.4014 38.0645 11.9742C37.8029 11.5437 37.6721 11.0386 37.6721 10.459C37.6721 9.6344 37.9354 8.96707 38.4619 8.45705C38.9918 7.94703 39.7221 7.69202 40.6527 7.69202C41.4078 7.69202 42.0039 7.80628 42.4411 8.03479C42.8782 8.26331 43.2111 8.59449 43.4396 9.02834C43.6681 9.46219 43.7824 10.0269 43.7824 10.7223V10.9509ZM41.7257 9.98214C41.686 9.59135 41.58 9.3115 41.4078 9.1426C41.2389 8.97369 41.0153 8.88924 40.7372 8.88924C40.4159 8.88924 40.1592 9.01675 39.9672 9.27176C39.8446 9.43073 39.7668 9.66752 39.7337 9.98214H41.7257ZM44.7312 7.81124H46.6239V8.67563C46.8061 8.30139 46.9932 8.04473 47.1853 7.90563C47.3807 7.76322 47.6208 7.69202 47.9056 7.69202C48.2037 7.69202 48.5299 7.78475 48.8842 7.97021L48.2583 9.41085C48.0199 9.3115 47.8311 9.26182 47.692 9.26182C47.427 9.26182 47.2217 9.37111 47.076 9.58969C46.8673 9.89769 46.763 10.4739 46.763 11.3185V13.087H44.7312V7.81124ZM51.4824 7.81124H52.4461V9.29163H51.4824V13.087H49.4555V9.29163H48.7004V7.81124H49.4555V7.57279C49.4555 7.35753 49.4787 7.12073 49.5251 6.86241C49.5714 6.60409 49.6575 6.39379 49.7834 6.23151C49.9126 6.06592 50.0914 5.93344 50.3199 5.83409C50.5517 5.73142 50.8895 5.68009 51.3333 5.68009C51.6877 5.68009 52.2027 5.72149 52.8783 5.80428L52.6547 7.02634C52.413 6.9866 52.2176 6.96673 52.0686 6.96673C51.8864 6.96673 51.7556 6.99819 51.6761 7.06112C51.5966 7.12073 51.5403 7.21677 51.5072 7.34925C51.4906 7.42211 51.4824 7.57611 51.4824 7.81124ZM58.7551 13.087H56.8674V12.2325C56.5859 12.5836 56.3011 12.8336 56.0129 12.9827C55.7281 13.1317 55.3771 13.2062 54.9598 13.2062C54.4034 13.2062 53.9662 13.0406 53.6483 12.7094C53.3337 12.3749 53.1764 11.8616 53.1764 11.1694V7.81124H55.2082V10.7124C55.2082 11.0436 55.2694 11.2787 55.392 11.4178C55.5145 11.5569 55.6867 11.6265 55.9086 11.6265C56.1504 11.6265 56.3474 11.5337 56.4998 11.3483C56.6554 11.1628 56.7332 10.83 56.7332 10.3498V7.81124H58.7551V13.087ZM60.0517 5.80428H62.0785V13.087H60.0517V5.80428Z" fill="white"/>
<path d="M17.6967 26.152H23.7276V27.7069H19.9521V28.8644H23.4543V30.3497H19.9521V31.7854H23.8369V33.4347H17.6967V26.152ZM24.9198 28.159H26.8026V29.0184C27.0841 28.6673 27.3689 28.4173 27.657 28.2683C27.9452 28.1159 28.2962 28.0397 28.7102 28.0397C29.2699 28.0397 29.7071 28.207 30.0217 28.5415C30.3396 28.8727 30.4986 29.386 30.4986 30.0815V33.4347H28.4668V30.5335C28.4668 30.2024 28.4055 29.9689 28.283 29.8331C28.1604 29.694 27.9882 29.6244 27.7663 29.6244C27.5213 29.6244 27.3225 29.7172 27.1702 29.9026C27.0179 30.0881 26.9417 30.4209 26.9417 30.9011V33.4347H24.9198V28.159ZM35.3769 28.159H37.2696V33.1416L37.2746 33.3751C37.2746 33.7063 37.2034 34.0209 37.061 34.3189C36.9219 34.6203 36.7347 34.8637 36.4996 35.0492C36.2678 35.2347 35.9714 35.3688 35.6104 35.4516C35.2527 35.5344 34.842 35.5758 34.3784 35.5758C33.3186 35.5758 32.59 35.4168 32.1926 35.0989C31.7985 34.7809 31.6014 34.3554 31.6014 33.8222C31.6014 33.7559 31.6047 33.6665 31.6113 33.5539L33.5736 33.7775C33.6233 33.9596 33.6995 34.0855 33.8021 34.155C33.9512 34.2577 34.1383 34.309 34.3635 34.309C34.6549 34.309 34.8718 34.2312 35.0142 34.0755C35.16 33.9199 35.2328 33.6483 35.2328 33.2608V32.461C35.0341 32.6962 34.8354 32.8667 34.6367 32.9727C34.3254 33.1383 33.9892 33.2211 33.6282 33.2211C32.9228 33.2211 32.3532 32.9131 31.9193 32.2971C31.6113 31.8599 31.4573 31.282 31.4573 30.5633C31.4573 29.742 31.6561 29.1161 32.0535 28.6855C32.4509 28.255 32.9709 28.0397 33.6133 28.0397C34.024 28.0397 34.3618 28.1093 34.6268 28.2484C34.895 28.3875 35.1451 28.6176 35.3769 28.9389V28.159ZM33.4742 30.7173C33.4742 31.0982 33.5554 31.3814 33.7177 31.5668C33.8799 31.749 34.0936 31.8401 34.3585 31.8401C34.6102 31.8401 34.8205 31.7457 34.9894 31.5569C35.1616 31.3648 35.2477 31.0767 35.2477 30.6925C35.2477 30.3083 35.1583 30.0152 34.9795 29.8132C34.8006 29.6079 34.5821 29.5052 34.3237 29.5052C34.0654 29.5052 33.8584 29.5996 33.7028 29.7884C33.5504 29.9738 33.4742 30.2835 33.4742 30.7173ZM38.5662 26.152H40.588V27.5281H38.5662V26.152ZM38.5662 28.159H40.588V33.4347H38.5662V28.159ZM41.8797 28.159H43.7624V29.0184C44.0439 28.6673 44.3287 28.4173 44.6169 28.2683C44.905 28.1159 45.2561 28.0397 45.67 28.0397C46.2297 28.0397 46.6669 28.207 46.9815 28.5415C47.2994 28.8727 47.4584 29.386 47.4584 30.0815V33.4347H45.4266V30.5335C45.4266 30.2024 45.3653 29.9689 45.2428 29.8331C45.1203 29.694 44.9481 29.6244 44.7262 29.6244C44.4811 29.6244 44.2824 29.7172 44.13 29.9026C43.9777 30.0881 43.9015 30.4209 43.9015 30.9011V33.4347H41.8797V28.159ZM54.5225 31.2986H50.4689C50.5053 31.6231 50.593 31.8649 50.7321 32.0239C50.9275 32.2524 51.1826 32.3666 51.4972 32.3666C51.6959 32.3666 51.8847 32.317 52.0635 32.2176C52.1728 32.1547 52.2904 32.0437 52.4162 31.8848L54.4083 32.0686C54.1036 32.5985 53.736 32.9793 53.3054 33.2111C52.8749 33.4397 52.2572 33.5539 51.4525 33.5539C50.7537 33.5539 50.2039 33.4562 49.8032 33.2608C49.4024 33.0621 49.0696 32.7491 48.8047 32.3219C48.543 31.8914 48.4122 31.3863 48.4122 30.8068C48.4122 29.9821 48.6755 29.3148 49.2021 28.8048C49.732 28.2947 50.4622 28.0397 51.3929 28.0397C52.1479 28.0397 52.7441 28.154 53.1812 28.3825C53.6184 28.611 53.9512 28.9422 54.1798 29.3761C54.4083 29.8099 54.5225 30.3746 54.5225 31.0701V31.2986ZM52.4659 30.3299C52.4261 29.9391 52.3202 29.6592 52.1479 29.4903C51.979 29.3214 51.7555 29.237 51.4773 29.237C51.1561 29.237 50.8994 29.3645 50.7073 29.6195C50.5848 29.7784 50.5069 30.0152 50.4738 30.3299H52.4659ZM61.3084 31.2986H57.2548C57.2912 31.6231 57.379 31.8649 57.5181 32.0239C57.7135 32.2524 57.9685 32.3666 58.2831 32.3666C58.4818 32.3666 58.6706 32.317 58.8494 32.2176C58.9587 32.1547 59.0763 32.0437 59.2021 31.8848L61.1942 32.0686C60.8895 32.5985 60.5219 32.9793 60.0914 33.2111C59.6608 33.4397 59.0432 33.5539 58.2384 33.5539C57.5396 33.5539 56.9898 33.4562 56.5891 33.2608C56.1884 33.0621 55.8555 32.7491 55.5906 32.3219C55.329 31.8914 55.1981 31.3863 55.1981 30.8068C55.1981 29.9821 55.4614 29.3148 55.988 28.8048C56.5179 28.2947 57.2482 28.0397 58.1788 28.0397C58.9339 28.0397 59.53 28.154 59.9672 28.3825C60.4043 28.611 60.7372 28.9422 60.9657 29.3761C61.1942 29.8099 61.3084 30.3746 61.3084 31.0701V31.2986ZM59.2518 30.3299C59.2121 29.9391 59.1061 29.6592 58.9339 29.4903C58.765 29.3214 58.5414 29.237 58.2632 29.237C57.942 29.237 57.6853 29.3645 57.4932 29.6195C57.3707 29.7784 57.2929 30.0152 57.2597 30.3299H59.2518ZM62.2573 28.159H64.15V29.0233C64.3321 28.6491 64.5193 28.3924 64.7113 28.2533C64.9067 28.1109 65.1468 28.0397 65.4317 28.0397C65.7297 28.0397 66.0559 28.1325 66.4103 28.3179L65.7844 29.7586C65.5459 29.6592 65.3571 29.6095 65.2181 29.6095C64.9531 29.6095 64.7478 29.7188 64.6021 29.9374C64.3934 30.2454 64.2891 30.8217 64.2891 31.6662V33.4347H62.2573V28.159ZM66.8326 26.152H68.8544V27.5281H66.8326V26.152ZM66.8326 28.159H68.8544V33.4347H66.8326V28.159ZM70.146 28.159H72.0288V29.0184C72.3103 28.6673 72.5951 28.4173 72.8833 28.2683C73.1714 28.1159 73.5224 28.0397 73.9364 28.0397C74.4961 28.0397 74.9333 28.207 75.2479 28.5415C75.5658 28.8727 75.7248 29.386 75.7248 30.0815V33.4347H73.693V30.5335C73.693 30.2024 73.6317 29.9689 73.5092 29.8331C73.3867 29.694 73.2144 29.6244 72.9925 29.6244C72.7475 29.6244 72.5488 29.7172 72.3964 29.9026C72.2441 30.0881 72.1679 30.4209 72.1679 30.9011V33.4347H70.146V28.159ZM80.6031 28.159H82.4958V33.1416L82.5008 33.3751C82.5008 33.7063 82.4296 34.0209 82.2872 34.3189C82.1481 34.6203 81.961 34.8637 81.7258 35.0492C81.494 35.2347 81.1976 35.3688 80.8366 35.4516C80.4789 35.5344 80.0683 35.5758 79.6046 35.5758C78.5448 35.5758 77.8162 35.4168 77.4188 35.0989C77.0247 34.7809 76.8276 34.3554 76.8276 33.8222C76.8276 33.7559 76.831 33.6665 76.8376 33.5539L78.7998 33.7775C78.8495 33.9596 78.9257 34.0855 79.0283 34.155C79.1774 34.2577 79.3645 34.309 79.5897 34.309C79.8811 34.309 80.0981 34.2312 80.2405 34.0755C80.3862 33.9199 80.4591 33.6483 80.4591 33.2608V32.461C80.2603 32.6962 80.0616 32.8667 79.8629 32.9727C79.5516 33.1383 79.2155 33.2211 78.8545 33.2211C78.1491 33.2211 77.5794 32.9131 77.1456 32.2971C76.8376 31.8599 76.6836 31.282 76.6836 30.5633C76.6836 29.742 76.8823 29.1161 77.2797 28.6855C77.6771 28.255 78.1971 28.0397 78.8396 28.0397C79.2502 28.0397 79.588 28.1093 79.853 28.2484C80.1212 28.3875 80.3713 28.6176 80.6031 28.9389V28.159ZM78.7005 30.7173C78.7005 31.0982 78.7816 31.3814 78.9439 31.5668C79.1062 31.749 79.3198 31.8401 79.5847 31.8401C79.8364 31.8401 80.0467 31.7457 80.2156 31.5569C80.3878 31.3648 80.474 31.0767 80.474 30.6925C80.474 30.3083 80.3845 30.0152 80.2057 29.8132C80.0269 29.6079 79.8083 29.5052 79.55 29.5052C79.2916 29.5052 79.0846 29.5996 78.929 29.7884C78.7766 29.9738 78.7005 30.2835 78.7005 30.7173Z" fill="white"/>
</svg>
