<svg width="112" height="34" viewBox="0 0 112 34" fill="none" xmlns="http://www.w3.org/2000/svg">
<path d="M95.0063 6.35285C96.5602 6.15108 98.0067 6.27424 99.7807 6.28996L96.99 27.3423C95.5356 27.5152 94.1547 27.3947 92.6086 27.4078L91.1045 17.5394L89.548 27.3921C87.9627 27.4052 86.5084 27.5205 85.0278 27.3292L82.2188 6.31617L87.1372 6.2821L87.9391 14.7774L89.1576 6.32927C90.4835 6.19301 91.7046 6.23231 93.0305 6.30569L94.2569 15.5164L95.0037 6.35547L95.0063 6.35285Z" fill="#1E2F30"/>
<path d="M70.1413 27.3291C68.7839 27.502 67.5445 27.4286 66.1792 27.3815L62.964 19.5176L62.7465 27.3736C60.9568 27.4286 59.1906 27.4942 57.3223 27.3422C62.2224 21.0663 62.2775 12.7046 57.4061 6.3868C59.0334 6.11952 60.6449 6.27937 62.3875 6.29247L65.2411 14.2795L65.4403 6.32391C66.9156 6.18765 68.4118 6.25054 70.1308 6.28723L70.1387 27.3264L70.1413 27.3291Z" fill="#1E2F30"/>
<path d="M111.942 22.6858C111.585 26.0819 109.062 27.869 105.894 27.7773C102.967 27.6934 100.546 25.9875 100.315 22.9086C100.242 21.9233 100.223 20.8725 100.318 19.8086C101.832 19.6881 103.273 19.7326 104.851 19.7798L105.027 22.602C105.063 23.2099 105.545 23.5663 106.041 23.5689C106.575 23.5715 106.95 23.2256 107.068 22.6098C107.558 20.0759 104.757 18.6976 102.333 16.4335C99.901 14.1617 99.2695 10.2756 101.458 7.62374C102.815 5.98075 105.116 5.73443 107.11 5.9362C109.617 6.19038 111.502 7.89365 111.758 10.4066C111.855 11.3526 111.845 12.2776 111.758 13.2707C110.241 13.3913 108.808 13.3441 107.238 13.2995C106.987 12.33 107.563 9.99521 106.035 10.0502C105.393 10.0738 105.006 10.5638 105.034 11.3159C105.15 14.5102 112.717 15.3094 111.944 22.6858H111.942Z" fill="#1E2F30"/>
<path d="M81.0768 18.6923L76.3889 18.784C76.2002 20.1624 76.2972 21.5564 76.3443 23.0003L81.6323 23.0579L81.6507 27.3606L71.4023 27.4078L71.3892 6.2847L81.5196 6.26636L81.5275 10.5429L76.3627 10.6057C76.2421 11.8059 76.3077 12.9405 76.3208 14.2927L81.0296 14.4289L81.082 18.6949L81.0768 18.6923Z" fill="#1E2F30"/>
<path d="M14.1933 0.228967C14.7829 0.124151 14.9584 0.231587 14.7174 0.553897C7.1077 2.43797 1.97433 9.31915 2.01888 16.9236C2.06343 24.528 7.33306 31.3069 14.7174 33.0469C14.83 33.3771 14.568 33.4793 13.9312 33.3535C5.59049 31.9804 -0.169155 24.5778 0.00379174 16.4204C0.176738 8.26312 6.20104 1.34264 14.1933 0.231587V0.228967Z" fill="#1E2F30"/>
<path d="M31.6711 5.63483C27.4732 4.68101 39.0869 -0.884729 40.7141 0.239423C37.2395 1.31379 34.095 2.91748 31.6711 5.63483Z" fill="#1E2F30"/>
<path d="M40.1356 33.0468C40.3164 33.5735 39.8002 33.4792 39.3494 33.3534C36.0477 32.7559 33.0814 31.354 30.7362 29.0245C30.4139 28.7048 31.4044 27.7457 31.6586 28.0025C34.0222 30.4107 36.8627 32.3838 40.1356 33.0494V33.0468Z" fill="#1E2F30"/>
<path d="M16.2895 33.3089C16.5175 33.3823 16.5149 33.4714 16.2895 33.571C15.3095 33.7177 14.6125 33.4635 13.9312 33.3535C14.222 33.343 14.5758 33.343 14.7173 33.0469C15.3724 33.2015 15.7943 33.3115 16.2895 33.3089Z" fill="#1E2F30"/>
<path d="M41.7075 33.3089C41.9355 33.3823 41.9328 33.4714 41.7075 33.571C40.7746 33.4792 39.9702 33.8068 39.3491 33.3535C39.64 33.343 39.9937 33.343 40.1352 33.0469C40.793 33.1805 41.207 33.3246 41.7075 33.3089Z" fill="#1E2F30"/>
<path d="M14.7174 0.553886C14.61 0.362597 14.403 0.270882 14.1934 0.228956C14.8013 -0.00950069 15.3673 -0.0985944 16.0512 0.142483C15.6084 0.367837 15.1629 0.443829 14.7174 0.553886Z" fill="#1E2F30"/>
<path d="M16.2896 33.5709V33.3089C16.7665 33.3062 17.0757 33.6416 17.3665 33.7045C16.887 34.1238 16.5595 33.5473 16.2896 33.5709Z" fill="#1E2F30"/>
<path d="M41.7075 33.571V33.309C42.1818 33.2933 42.4936 33.6522 42.7871 33.702C42.284 34.0951 42.0062 33.5998 41.7075 33.571Z" fill="#1E2F30"/>
<path d="M20.6077 23.105C17.9795 23.4221 15.4691 22.3608 14.2795 20.2252L30.3451 15.8544C29.8132 9.87723 24.9471 5.57452 19.287 5.43826C13.5693 5.302 8.68227 9.36625 7.77561 14.9687C6.85061 20.6838 10.3095 26.1657 15.8936 27.7536C21.2681 29.2813 27.1509 26.6583 29.3966 21.3782L26.8757 19.1587C25.3166 21.1554 23.3382 22.6386 20.6077 23.1024V23.105ZM17.2169 10.3987C19.7246 9.70952 22.5206 10.3515 23.8308 13.1947L13.1396 16.1243C12.7387 13.2392 14.6515 11.0748 17.2143 10.3987H17.2169Z" fill="#1E2F30"/>
<path d="M45.253 23.1443C42.8737 23.2439 40.8403 22.1407 39.6611 20.2435L55.7399 15.8806C55.3154 10.0685 50.4939 5.67672 44.9412 5.44612C39.0846 5.20504 34.098 9.31122 33.1887 14.9791C32.2689 20.7126 35.741 26.1788 41.3198 27.7589C46.6969 29.2839 52.5666 26.6504 54.8123 21.3834C53.9109 20.5449 53.1771 19.8164 52.239 19.177C50.5489 21.3913 48.2324 23.0185 45.253 23.1417V23.1443ZM42.6353 10.3987C45.1456 9.7069 47.9259 10.3541 49.2492 13.1973L38.5605 16.1243C38.1413 13.2392 40.0725 11.0774 42.6326 10.3987H42.6353Z" fill="#1E2F30"/>
</svg>
